<svg width="0" height="0" class="hidden">
  <symbol fill="none" xmlns="http://www.w3.org/2000/svg" viewBox="0 0 24 24" id="location">
    <path d="M19 9A7.002 7.002 0 007.05 4.05 7 7 0 005 9c0 1.387.41 2.677 1.105 3.765h-.008C8.457 16.46 12 22 12 22l5.903-9.235h-.007A6.98 6.98 0 0019 9zm-7 3a3 3 0 110-6 3 3 0 010 6z" fill="#757575"></path>
  </symbol>
  <symbol fill="none" xmlns="http://www.w3.org/2000/svg" viewBox="0 0 20 20" id="mail">
    <path d="M19.621 7.453a.235.235 0 01.379.184v7.988c0 1.035-.84 1.875-1.875 1.875H1.875A1.875 1.875 0 010 15.625V7.641c0-.196.223-.305.379-.184.875.68 2.035 1.543 6.02 4.438.824.601 2.214 1.867 3.601 1.859 1.395.012 2.813-1.281 3.605-1.86C17.59 9 18.746 8.134 19.621 7.455zM10 12.5c.906.016 2.21-1.14 2.867-1.617 5.184-3.762 5.578-4.09 6.774-5.028A.935.935 0 0020 5.117v-.742C20 3.34 19.16 2.5 18.125 2.5H1.875C.84 2.5 0 3.34 0 4.375v.742c0 .29.133.559.36.738 1.195.934 1.59 1.266 6.773 5.028.656.476 1.96 1.633 2.867 1.617z" fill="#757575"></path>
  </symbol>
  <symbol fill="none" xmlns="http://www.w3.org/2000/svg" viewBox="0 0 24 24" id="phone">
    <path d="M16.667 2.667H7.333A1.333 1.333 0 006 4v16a1.333 1.333 0 001.333 1.333h9.334A1.333 1.333 0 0018 20V4a1.334 1.334 0 00-1.333-1.333zm-4 17.333h-1.334v-1.333h1.334V20zm-5.334-2.667V4h9.334v13.333H7.333z" fill="#757575"></path>
  </symbol>
  <symbol fill="none" xmlns="http://www.w3.org/2000/svg" viewBox="0 0 24 24" id="globe">
    <path d="M16.282 7.5C15.581 3.314 13.926.375 12 .375c-1.926 0-3.58 2.94-4.282 7.125h8.564zM7.355 12c0 1.04.058 2.04.16 3h8.966a28.448 28.448 0 000-6H7.515c-.102.96-.16 1.96-.16 3zm15.711-4.5c-1.384-3.183-4.185-5.644-7.645-6.638 1.18 1.585 1.994 3.97 2.42 6.638h5.225zM8.574.862C5.12 1.856 2.313 4.317.934 7.5H6.16C6.58 4.833 7.394 2.447 8.574.862zM23.584 9h-5.55c.102.984.16 1.992.16 3s-.058 2.016-.16 3h5.545c.266-.96.416-1.96.416-3s-.15-2.04-.411-3zM5.806 12c0-1.008.059-2.016.16-3H.416C.155 9.96 0 10.96 0 12s.155 2.04.416 3h5.545a30.76 30.76 0 01-.155-3zm1.912 4.5c.701 4.186 2.356 7.125 4.282 7.125 1.926 0 3.58-2.94 4.282-7.125H7.718zm7.708 6.637c3.455-.993 6.261-3.454 7.645-6.637h-5.226c-.426 2.667-1.238 5.053-2.42 6.637zM.934 16.5c1.384 3.183 4.185 5.644 7.645 6.637-1.18-1.584-1.994-3.97-2.42-6.637H.935z" fill="#757575"></path>
  </symbol>
</svg>